<svg xmlns="http://www.w3.org/2000/svg" xmlns:xlink="http://www.w3.org/1999/xlink" width="1920" height="85" viewBox="0 0 1920 85"><defs><clipPath id="b"><rect width="1920" height="85"/></clipPath></defs><g id="a" clip-path="url(#b)"><path d="M-15347-80.187v0h-890v-54.531h27.159l11.65,14.254h83.9l4.543-14.254h43.2l15.167-31.279,15.171,31.279h.158l15.253,39.3,15.244-39.3h115.31l18.039-20.852h103l7.033,20.852h76.227l3.793-13.056h67.213l9.719,13.056h66.584l3.872,11.475h103l9.931-11.475h35.053l8.207-13.056h56.78l3.2,13.056h83.194l3.2-13.056h56.78l8.207,13.056h35.053l9.931,11.479h103l3.871-11.479h66.585l9.715-13.056h67.221l3.785,13.056h76.23l7.033-20.852h103l18.044,20.852h115.31l15.248,39.3,15.248-39.3h.163l15.167-31.275,15.167,31.275h43.2l4.543,14.254h83.9l11.646-14.254H-14317v54.535Zm-2.155-58.944c0,1.108.6,2.009,1.341,2.009s1.341-.9,1.341-2.009-.6-2-1.341-2S-15349.159-140.235-15349.159-139.131Zm-4.829,0c0,1.108.6,2.009,1.341,2.009s1.345-.9,1.345-2.009-.6-2-1.345-2S-15353.988-140.235-15353.988-139.131Zm-4.829,0c0,1.108.6,2.009,1.341,2.009s1.341-.9,1.341-2.009-.6-2-1.341-2S-15358.817-140.235-15358.817-139.131Zm160.953,0c0,1.1.6,2,1.341,2s1.34-.9,1.34-2-.6-2-1.34-2S-15197.864-140.239-15197.864-139.131Zm-4.829,0c0,1.1.6,2,1.341,2s1.341-.9,1.341-2-.6-2-1.341-2S-15202.693-140.239-15202.693-139.131Zm-4.829,0c0,1.1.6,2,1.341,2s1.341-.9,1.341-2-.6-2-1.341-2S-15207.522-140.239-15207.522-139.131Zm480.665-4.813c0,1.1.6,2,1.341,2s1.345-.9,1.345-2-.6-2-1.345-2S-14726.857-145.048-14726.857-143.944Zm-4.829,0c0,1.1.6,2,1.341,2s1.341-.9,1.341-2-.6-2-1.341-2S-14731.687-145.048-14731.687-143.944Zm-4.828,0c0,1.1.6,2,1.345,2s1.34-.9,1.34-2-.6-2-1.34-2S-14736.515-145.048-14736.515-143.944Zm-1083.656,0c0,1.1.6,2,1.345,2s1.341-.9,1.341-2-.6-2-1.341-2S-15820.171-145.052-15820.171-143.944Zm-4.824,0c0,1.1.6,2,1.341,2s1.34-.9,1.34-2-.6-2-1.34-2S-15825-145.052-15825-143.944Zm-4.829,0c0,1.1.6,2,1.341,2s1.341-.9,1.341-2-.6-2-1.341-2S-15829.824-145.052-15829.824-143.944Z" transform="translate(16237.002 166.001)"/></g></svg>