<svg xmlns="http://www.w3.org/2000/svg" xmlns:xlink="http://www.w3.org/1999/xlink" width="501" height="135" viewBox="0 0 501 135"><defs><clipPath id="b"><rect width="501" height="135"/></clipPath></defs><g id="a" clip-path="url(#b)"><g transform="translate(0 37.459)"><path d="M460.384,180.293H406.012l4.241-6.2h45.881Z" transform="translate(-384.498 -82.899)"/><path d="M424.159,237.4h49.615l6.674,9.743h17.217L485.491,222.8H442.879l21.3-42.611-15.218-30.436L437.092,173.5l5.488,9.909-22.222,44.361-11.165,1.53-8.925,17.851h17.217Z" transform="translate(-400.268 -149.748)"/><path d="M430.68,163.28,410.13,204.3l-6.986.956,24.118-48.148Z" transform="translate(-392.37 -129.537)"/></g><path d="M437.371,217.178V194.7l-22.476-44.952h18.73l11.237,22.476L456.1,149.748h18.73L452.355,194.7v52.445Z" transform="translate(-351.719 -112.288)"/><path d="M434.4,209.684V149.748h48.7l-11.239,22.476H483.1v37.46Zm22.478-44.952h-7.493v14.982ZM468.112,194.7v-7.491h-18.73V194.7Z" transform="translate(-307.27 -112.288)"/><path d="M452.275,209.684l29.967-59.936h18.73v14.985h-7.491l-3.745,7.491h11.237v14.985h-18.73L478.5,194.7H504.72l7.491,14.985Z" transform="translate(-272.94 -112.288)"/><path d="M490.013,179.715v29.969H475.028V149.748h48.7v37.46H512.488l11.237,22.476v37.46Zm18.73-7.491v-7.491h-18.73v7.491Z" transform="translate(-232.248 -112.288)"/><path d="M497.78,246.684V149.748h48.7v14.985L535.24,187.208H512.767v22.637ZM524,172.224l3.746-7.491H512.767v7.491Z" transform="translate(-202.557 -112.288)"/><path d="M515.658,209.684V149.748h14.984V194.7h18.73V149.748h14.985v59.936Z" transform="translate(-168.227 -112.288)"/><path d="M553.4,200.923v29.969H538.411V133.5l33.715,67.427V170.956H587.11v97.4Z" transform="translate(-138.536 -133.496)"/><path d="M561.164,209.684V149.748h14.985v59.936Zm29.969,0-14.985-29.969,14.985-29.967h18.73l-14.985,29.967,14.985,29.969Z" transform="translate(-108.844 -112.288)"/></g></svg>