<svg xmlns="http://www.w3.org/2000/svg" xmlns:xlink="http://www.w3.org/1999/xlink" width="24" height="24" viewBox="0 0 24 24"><defs><clipPath id="b"><rect width="24" height="24"/></clipPath></defs><g id="a" clip-path="url(#b)"><g transform="translate(-569 -521)"><path d="M20,3.924a8.549,8.549,0,0,1-2.362.647,4.078,4.078,0,0,0,1.8-2.266,8.194,8.194,0,0,1-2.6.993A4.1,4.1,0,0,0,9.749,6.1a4.222,4.222,0,0,0,.095.935A11.605,11.605,0,0,1,1.393,2.747a4.106,4.106,0,0,0,1.26,5.48A4.05,4.05,0,0,1,.8,7.722v.045A4.119,4.119,0,0,0,4.085,11.8a4.092,4.092,0,0,1-1.075.135,3.625,3.625,0,0,1-.776-.07,4.139,4.139,0,0,0,3.831,2.856A8.237,8.237,0,0,1,.981,16.466,7.68,7.68,0,0,1,0,16.41a11.542,11.542,0,0,0,6.29,1.84A11.59,11.59,0,0,0,17.96,6.582c0-.181-.006-.356-.015-.53A8.18,8.18,0,0,0,20,3.924Z" transform="translate(571 523)"/><rect width="24" height="24" transform="translate(569 521)" fill="none"/></g></g></svg>